<svg width="30" height="29" viewBox="0 0 30 29" fill="none" xmlns="http://www.w3.org/2000/svg">
<g id="prime:github">
<path id="Vector" d="M11.6875 20.3967C11.6875 20.4813 11.6 20.5417 11.475 20.5417C11.35 20.5417 11.25 20.5417 11.25 20.3967C11.25 20.2517 11.35 20.2517 11.4625 20.2517C11.575 20.2517 11.6875 20.3121 11.6875 20.3967ZM10.4375 20.2154C10.4375 20.3 10.4375 20.3967 10.6125 20.4208C10.6572 20.4416 10.7087 20.4444 10.7556 20.4285C10.8024 20.4127 10.8409 20.3795 10.8625 20.3363C10.8625 20.2517 10.8625 20.1671 10.6875 20.1308C10.5125 20.0946 10.4625 20.1308 10.4375 20.2154ZM12.2125 20.155C12.1 20.155 12.025 20.2517 12.0375 20.3483C12.05 20.445 12.15 20.4813 12.275 20.4571C12.4 20.4329 12.4625 20.3483 12.45 20.2638C12.4375 20.1792 12.3375 20.1429 12.2125 20.155ZM14.875 4.83334C13.5567 4.82135 12.2495 5.06693 11.0318 5.55535C9.81408 6.04377 8.71102 6.76496 7.78878 7.67565C6.86654 8.58633 6.14413 9.66774 5.6649 10.855C5.18567 12.0422 4.95951 13.3108 4.99997 14.5846C4.96508 16.6713 5.60526 18.7164 6.8311 20.4342C8.05694 22.1521 9.80722 23.457 11.8375 24.1667C12.35 24.2513 12.5375 23.9371 12.5375 23.6833V21.2667C12.5375 21.2667 9.71247 21.8708 9.11247 20.0583C9.11247 20.0583 8.66247 18.85 7.99997 18.5963C7.99997 18.5963 7.07497 17.9679 8.06247 17.98C8.38591 18.0222 8.69461 18.137 8.96379 18.3154C9.23298 18.4938 9.45515 18.7307 9.61247 19.0071C9.74326 19.2549 9.92506 19.4743 10.1467 19.6518C10.3684 19.8292 10.6252 19.961 10.9014 20.0391C11.1777 20.1172 11.4675 20.1399 11.7531 20.1058C12.0388 20.0717 12.3142 19.9815 12.5625 19.8408C12.6098 19.3364 12.8348 18.8629 13.2 18.4996C10.95 18.2458 8.67497 17.9317 8.67497 14.0771C8.65108 13.6416 8.72345 13.2063 8.88726 12.8C9.05107 12.3937 9.30256 12.0258 9.62497 11.7208C9.32078 10.8363 9.35628 9.87547 9.72497 9.01417C10.575 8.74834 12.5125 10.0896 12.5125 10.0896C14.1677 9.63832 15.9198 9.63832 17.575 10.0896C17.575 10.0896 19.5125 8.74834 20.3625 9.01417C20.7391 9.87378 20.7747 10.8374 20.4625 11.7208C20.7963 12.0216 21.0611 12.3867 21.2398 12.7926C21.4185 13.1985 21.5071 13.636 21.5 14.0771C21.5 17.9438 19.125 18.2458 16.875 18.4996C17.1011 18.7448 17.2732 19.032 17.3806 19.3436C17.4881 19.6552 17.5287 19.9848 17.5 20.3121V23.6592C17.4992 23.7408 17.5187 23.8214 17.557 23.8941C17.5953 23.9668 17.6511 24.0296 17.7198 24.077C17.7885 24.1244 17.868 24.1552 17.9516 24.1666C18.0352 24.178 18.1204 24.1697 18.2 24.1425C20.2265 23.439 21.9732 22.1379 23.1934 20.4229C24.4135 18.7078 25.0455 16.6656 25 14.5846C25.0117 13.2978 24.7576 12.0217 24.2524 10.8311C23.7473 9.64055 23.0013 8.55945 22.0583 7.65121C21.1153 6.74298 19.9941 6.0259 18.7606 5.54202C17.5271 5.05814 16.2061 4.81721 14.875 4.83334ZM8.92497 18.6204V18.8258C8.93891 18.8394 8.95547 18.8501 8.9737 18.8574C8.99193 18.8647 9.01148 18.8685 9.03122 18.8685C9.05097 18.8685 9.07051 18.8647 9.08875 18.8574C9.10698 18.8501 9.12354 18.8394 9.13747 18.8258C9.13747 18.8258 9.13747 18.6929 9.13747 18.6083C9.13747 18.5238 8.97497 18.5721 8.92497 18.6204ZM8.48747 18.2942C8.48747 18.2942 8.48747 18.415 8.57497 18.4513C8.58552 18.4639 8.59885 18.474 8.61399 18.481C8.62913 18.488 8.6457 18.4917 8.66247 18.4917C8.67925 18.4917 8.69582 18.488 8.71096 18.481C8.7261 18.474 8.73943 18.4639 8.74997 18.4513C8.74997 18.4513 8.74997 18.3304 8.66247 18.2942C8.57497 18.2579 8.51247 18.2579 8.48747 18.2942ZM9.73747 19.72V19.9738C9.73747 20.0583 9.94997 20.0704 9.99997 19.9738C10.05 19.8771 9.99997 19.8046 9.99997 19.72C9.99997 19.6354 9.83747 19.6596 9.78747 19.72H9.73747ZM9.27497 19.1279V19.3696C9.27497 19.4663 9.44997 19.5025 9.51247 19.4663C9.54413 19.4311 9.56156 19.386 9.56156 19.3394C9.56156 19.2928 9.54413 19.2477 9.51247 19.2125C9.44997 19.1158 9.34997 19.0796 9.27497 19.1279Z" fill="white"/>
</g>
</svg>
